PathFileType	4	(X/Y/Z)	Patient4_TMGait_0pt5_01_right_33.trc.trc
DataRate	CameraRate	NumFrames	NumMarkers	Units	OrigDataRate	OrigDataStartFrame	OrigNumFrames
81.871345029240	81.871345029240	5	33	mm	81.871345029240	124	       141
Frame#	Time	L.ASIS			Sacral			L.Shoulder			Chest			R.Shoulder			Neck			R.ASIS			R.Thigh.Superior			R.Thigh.Lateral			R.Thigh.Inferior			R.Patella			L.Thigh.Superior			L.Thigh.Lateral			L.Thigh.Inferior			L.Patella			L.Shank.Superior			L.Shank.Lateral			L.Shank.Inferior			R.Shank.Superior			R.Shank.Lateral			R.Shank.Inferior			R.Heel			R.Midfoot.Superior			R.Midfoot.Lateral			R.Toe			L.Heel			L.Midfoot.Lateral			L.Midfoot.Superior			L.Toe			L.Elbow			L.Wrist			R.Elbow			R.Wrist			
		X1	Y1	Z1	X2	Y2	Z2	X3	Y3	Z3	X4	Y4	Z4	X5	Y5	Z5	X6	Y6	Z6	X7	Y7	Z7	X8	Y8	Z8	X9	Y9	Z9	X10	Y10	Z10	X11	Y11	Z11	X12	Y12	Z12	X13	Y13	Z13	X14	Y14	Z14	X15	Y15	Z15	X16	Y16	Z16	X17	Y17	Z17	X18	Y18	Z18	X19	Y19	Z19	X20	Y20	Z20	X21	Y21	Z21	X22	Y22	Z22	X23	Y23	Z23	X24	Y24	Z24	X25	Y25	Z25	X26	Y26	Z26	X27	Y27	Z27	X28	Y28	Z28	X29	Y29	Z29	X30	Y30	Z30	X31	Y31	Z31	X32	Y32	Z32	X33	Y33	Z33	

124	44.922357142857	860.557755035189	948.662978715782	330.918608465638	637.821048180747	1004.623811142100	472.859882672578	853.569574941178	1422.228896018115	307.216992440091	934.854259861804	1344.477999339857	476.601137919500	840.407075090876	1425.288566695144	642.707164799632	846.817491181238	1483.836689777607	457.071107828934	853.227075117076	929.579914545016	605.951169606215	924.650112767779	751.810685234227	577.531072785283	867.061011533638	633.758645215066	640.685586048592	955.579893259181	596.044510529612	561.717259897568	979.434294305063	510.666497586621	574.072104309163	871.335824302113	724.802168104728	360.942076196945	765.801046941417	627.253338540421	290.050424499338	825.147469416221	534.572416010962	359.429275443163	811.205377348443	462.398263555593	365.587687017584	769.978502201965	397.563533736312	352.801793169158	662.342520737352	304.783124603380	294.423938316468	684.695576816531	184.062589540616	361.949928071368	963.002593956634	419.451689813639	583.709058101261	905.991569635586	305.995379624625	643.064035656971	971.289639556779	219.367083740047	588.962461364095	868.687024171299	40.649662298718	554.477103677926	1032.486069652604	108.319692290550	600.052276862540	949.830375672016	37.244356218955	631.845106563319	1154.210431311351	66.694742315361	630.613403514391	532.157858647607	40.540823792002	392.939198881621	606.050879259906	36.157590527982	312.929666292300	691.576364991987	95.098167395231	340.368532520417	818.052129137328	39.389510170686	308.474939485370	793.024441412329	1081.244812191910	172.253727758194	966.648793919618	886.106524592440	169.889267371738	697.719207609354	1114.235751309736	758.902852537569	665.724776507093	858.331533572251	792.592066842853	
125	44.934571428571	862.285405576257	947.840864746213	333.628201012572	639.359635095740	1002.735899690221	475.785295396719	852.987768559767	1421.038033306660	310.727510469938	935.443755561264	1343.584831961782	479.766012405965	841.218261583668	1423.723892740237	646.365551158726	846.950520010314	1482.607283384417	460.675160383217	855.336424532922	927.696840804377	608.395280740304	926.786033553033	749.590659776555	580.463098932760	867.609616115290	631.764354116785	642.103949612774	956.823242062661	594.197502477159	563.944485937549	978.916919832401	508.418663524641	575.362612384245	873.743558408504	723.639624726260	362.984239940738	768.604199590788	625.554192705475	292.610885572919	828.794028067764	532.844822770931	361.543671648709	815.139028022560	459.666571726221	367.166191860847	771.720818487554	395.583703285583	354.480293043434	661.798233534941	305.553183520785	295.818081658686	681.458256190584	184.046086908311	362.617628899712	962.735337364267	417.069135889011	584.704318123600	905.237544378491	303.838088885285	643.785114079064	969.701415001755	217.067506265264	589.144699758164	864.991485713179	40.679479158068	554.123877273933	1029.587480300974	105.618749489279	599.579936363234	945.858604339870	36.512049343449	631.845487970988	1150.804203974906	62.313330505682	630.496288341512	526.305263987581	43.152058608029	392.776186594908	600.171776028377	37.719890154721	312.893739463979	686.436959081897	95.480530123287	340.364071835343	811.942002177834	38.973141533445	308.426000317011	793.505281106437	1079.092141242253	176.993868492333	968.217996532349	884.849232047283	174.764015718741	699.421354822849	1111.711671591833	760.894338888841	667.621234165743	855.502914220507	793.343951032868	
126	44.946785714286	863.688615875916	947.267851896315	336.370828053172	640.673508270051	1001.154288539205	478.761194009398	852.346964585801	1420.149609665905	314.314112462872	936.044372734991	1342.902692599536	482.959515074051	842.152026173046	1422.347272200868	650.095722409696	847.193413502353	1481.639797356128	464.386802147624	857.318410850569	926.177481652382	610.872710060162	929.014202022800	747.929481609151	583.287561084174	868.463367194077	630.329839457427	643.494381711130	958.281274124119	592.838777694951	566.110789580405	978.797003851952	506.540751215979	576.642372082090	876.508193424032	722.930583326465	365.140889646412	772.269225087047	623.941201591562	295.311291278661	833.730094809593	531.400167581687	363.779012328294	820.513672213571	457.036505605256	368.767568922051	774.690244233304	393.752542907381	356.252432153522	662.275468098696	306.897485615626	297.336420691070	678.957748478274	184.595313242035	363.349934355755	962.465328750322	415.040918187155	585.603711600233	904.158439164358	302.247226731665	644.560905484163	967.278177782896	215.064866498522	589.254614897062	859.733646189835	41.023657033401	553.869468203822	1025.306108847011	103.194690785119	599.076937888532	940.387490382096	36.112360500926	631.910457264205	1145.981833352058	58.101915835628	630.311975923329	520.749234726197	47.169108630932	392.717572191770	594.461017516434	40.254861215505	312.937070842405	681.744637099573	96.232602465139	340.403203089384	805.763848449423	38.412808893335	308.433809271644	793.626951703566	1077.185137860722	181.982439044219	969.114072196365	883.527180058883	179.609372953549	701.826722448897	1109.035235687903	762.955954534045	670.864680539367	852.414971639656	794.072139760878	
127	44.959000000000	864.713177612113	946.990650228571	339.094282406674	641.750796860078	999.961489458956	481.779532173251	851.710190190241	1419.639647844003	317.931745593226	936.645499812619	1342.470909344688	486.147704469951	843.195648451380	1421.235840846517	653.836405822670	847.557078141588	1480.993615020204	468.155348490123	859.127206973188	925.108048227161	613.373452705255	931.147132017337	746.816113935705	585.977646314212	869.473747680338	629.462503759044	644.915234094454	959.706919510444	591.934091150681	568.186694755740	978.867123889265	505.072221721422	577.927669196892	879.587138657149	722.771823403280	367.409027083776	776.810732748379	622.503325523076	298.104599152425	839.966521538377	530.352136533158	366.091974822501	827.318379423575	454.648189031940	370.358922981395	778.933214050560	392.171362359159	358.096240462255	663.857260519856	308.912377650326	298.987139765452	677.300621961671	185.841975452411	364.177707517108	962.075109633078	413.416818379906	586.460271187155	902.773368521637	301.184839029534	645.417304555646	964.216352705450	213.416685209059	589.351812894186	853.481082971498	41.506514909361	553.737720461178	1020.064582683129	101.194687135853	598.605257037367	933.992748447586	35.956649315656	632.039080818318	1140.235483909728	54.414099915405	630.101143995046	515.614060672732	52.797739618823	392.835753253315	589.002137953315	43.958930001070	313.110905733484	677.591839549303	97.458736410081	340.534953313140	799.527481911608	37.712514218404	308.521659137003	793.433363181421	1075.646136683447	187.148807703621	969.302534529872	882.187399569924	184.423232291543	704.889266871421	1106.331359556769	765.085429004571	675.468593060076	849.201678777820	794.786375448100	
128	44.971214285714	865.334088269252	947.028299449556	341.749219375597	642.600025289110	999.204910859151	484.846000450904	851.122964815754	1419.550364979206	321.532581047564	937.227904326711	1342.309489322169	489.293314167839	844.323361654080	1420.445007733331	657.526976023065	848.029592001202	1480.700296841270	471.924174857284	860.733285246106	924.532877533037	615.882826754864	933.004906947560	746.183288207294	588.521965058485	870.449966957267	629.105784626726	646.407513741256	960.848787039442	591.400625210678	570.151015877742	978.871499223390	503.989047713911	579.224392515190	882.924366081892	723.226627001312	369.777059840799	782.196086008532	621.324528949513	300.938241125908	847.438970822078	529.800311949525	368.430064453598	835.463345208731	452.640116590305	371.911396119555	784.433458916294	390.935214955909	359.985259357465	666.578825551553	311.656143957471	300.773139366033	676.565657240598	187.881527752116	365.130897008352	961.403988789672	412.190397364778	587.320615555562	901.033463576161	300.567908991749	646.351660433589	960.652962958182	212.135855489870	589.485555321927	846.707536552541	41.997944093775	553.730412474874	1014.219179656117	99.695545368306	598.206310348628	927.144122997651	35.960021732638	632.221281872402	1133.968473281011	51.462555680053	629.902452896705	511.039270257921	60.138289549355	393.198676186230	583.904857652776	48.969082984725	313.462624871808	674.067520144813	99.250921692467	340.810368336926	793.280679346409	36.897279687905	308.705315927427	792.970478648523	1074.572258522519	192.401140670188	968.775617037794	880.880042715432	189.201078108935	708.547170261095	1103.711530271007	767.283855115902	681.443319363000	845.993513477877	795.494950095049	
